<mxfile host="app.diagrams.net" modified="2023-10-11T17:28:46.130Z" agent="Mozilla/5.0 (Windows NT 10.0; Win64; x64) AppleWebKit/537.36 (KHTML, like Gecko) Chrome/117.0.0.0 Safari/537.36" version="22.0.4" etag="CwApmauCOzezyD-dtfVi" type="github">
  <diagram name="PÃ¡gina-1" id="ejp0A_04niNCjpFsmvg1">
    <mxGraphModel>
      <root>
        <mxCell id="0" />
        <mxCell id="1" parent="0" />
      </root>
    </mxGraphModel>
  </diagram>
</mxfile>
